<?xml version="1.0" encoding="utf-8"?>
<!-- Generator: Adobe Illustrator 23.0.4, SVG Export Plug-In . SVG Version: 6.00 Build 0)  -->
<svg version="1.1" id="Ebene_1" xmlns="http://www.w3.org/2000/svg" xmlns:xlink="http://www.w3.org/1999/xlink" x="0px" y="0px"
	 viewBox="0 0 225.93 148" style="enable-background:new 0 0 225.93 148;" xml:space="preserve">
<style type="text/css">
	.st0{fill:#B1E0EF;}
	.st1{fill:#F7A758;}
	.st2{fill:#17235A;}
	.st3{fill:#FFFFFF;}
</style>
<path class="st0" d="M99.29,122.69l9.56,25.31c8.59-19.92,12.89-42.69,12.89-68.31C121.74,98.37,113.44,113.39,99.29,122.69z"/>
<path class="st0" d="M60.87,26.32c36.52,0,60.87,21.35,60.87,53.37c0-39.14-24.35-64.75-60.87-64.75
	c-15.22,0-28.32,3.72-38.42,10.36l3.33,8.85C32.23,29.17,46.55,26.32,60.87,26.32z"/>
<path class="st1" d="M22.45,25.3L12.89,0C4.3,19.92,0,42.69,0,68.31C0,49.64,8.3,34.6,22.45,25.3z"/>
<path class="st1" d="M95.96,113.85c-6.45,4.98-20.77,7.83-35.09,7.83C24.35,121.68,0,100.33,0,68.31
	c0,39.13,24.35,64.74,60.87,64.74c15.22,0,28.32-3.72,38.42-10.36L95.96,113.85z"/>
<path class="st2" d="M60.87,121.68c14.33,0,28.64-2.85,35.09-7.83l3.33,8.85c14.15-9.3,22.45-24.33,22.45-43
	c0-32.02-24.35-53.37-60.87-53.37c-14.32,0-28.64,2.85-35.09,7.83l-3.33-8.85C8.3,34.6,0,49.64,0,68.31
	C0,100.33,24.35,121.68,60.87,121.68z"/>
<polygon class="st3" points="99.38,90.44 99.38,74.01 102.58,74.01 102.58,81.48 108.93,74.01 112.87,74.01 105.83,81.64 
	113.62,90.44 109.4,90.44 102.58,82.44 102.58,90.44 "/>
<path class="st2" d="M142.03,76.41c-3.2,0-5.55,2.56-5.55,5.71s2.4,5.71,5.55,5.71c1.71,0,3.15-0.69,4.11-1.76l2.24,2.24
	c-1.6,1.55-3.79,2.51-6.35,2.51c-4.96,0-8.91-3.95-8.91-8.7c0-4.75,3.89-8.7,8.91-8.7c2.45,0,4.64,0.96,6.24,2.51l-2.24,2.24
	C145.07,77.1,143.64,76.41,142.03,76.41z"/>
<path class="st2" d="M165.24,90.44H153.6V74.01h3.2v13.55h6.19C163.58,88.68,164.28,89.53,165.24,90.44z"/>
<path class="st2" d="M174.83,73.42c4.91,0,8.91,3.95,8.91,8.7c0,4.75-4,8.7-8.91,8.7s-8.91-3.95-8.91-8.7
	C165.92,77.37,169.92,73.42,174.83,73.42z M174.83,87.83c3.1,0,5.55-2.56,5.6-5.71c0.05-3.15-2.51-5.71-5.6-5.71
	c-3.1,0-5.55,2.56-5.55,5.71S171.74,87.83,174.83,87.83z"/>
<path class="st2" d="M189.5,82.97v-8.96h3.2v9.18c0,2.93,1.44,4.7,4.06,4.7s4.05-1.76,4.05-4.7v-9.18h3.2v8.96
	c0,5.07-2.67,7.84-7.26,7.84C192.16,90.81,189.5,88.04,189.5,82.97z"/>
<path class="st2" d="M225.93,82.22c0,4.75-3.84,8.22-9.02,8.22h-5.82V74.01h5.82C222.09,74.01,225.93,77.48,225.93,82.22z
	 M222.62,82.22c0-3.15-2.29-5.34-5.76-5.34h-2.56v10.67h2.56C220.33,87.56,222.62,85.37,222.62,82.22z"/>
<g>
	<path class="st3" d="M39.05,73.99h6.18c8.35,0,14.79,6.09,14.79,13.66s-6.26,13.74-14.09,13.74c-7.57,0-13.75-5.74-14.18-12.88
		h5.83c0.35,4.35,3.92,7.57,8.53,7.57c4.61,0,8.26-3.65,8.26-8.26c0-4.78-3.48-8.44-9.31-8.44h-6V73.99z M56.7,65.73H39.05v-5.13
		h19.22C57.49,62.25,56.88,64.25,56.7,65.73z M76.97,87.65c-8.87,0-15.4-7.05-15.4-16.79c0-12.7,10.18-23.05,25.75-23.05l-2.26,5.39
		c-10.97,0-17.83,7.83-17.83,17.31c0,7.05,4.09,11.92,10.09,11.92c4.78,0,8.44-3.74,8.44-8.26c0-5.05-3.92-8.53-9.31-8.53h-2.87
		c1.05-2.87,3.13-4.52,5.83-4.52c6.61,0,12.01,5.74,12.01,12.7C91.42,81.38,84.98,87.65,76.97,87.65z"/>
</g>
</svg>
